<?xml version="1.0" standalone="no"?>
<!DOCTYPE svg PUBLIC "-//W3C//DTD SVG 20010904//EN"
 "http://www.w3.org/TR/2001/REC-SVG-20010904/DTD/svg10.dtd">
<svg version="1.0" xmlns="http://www.w3.org/2000/svg"
 width="256.000000pt" height="256.000000pt" viewBox="0 0 256.000000 256.000000"
 preserveAspectRatio="xMidYMid meet">

<g transform="translate(0.000000,256.000000) scale(0.100000,-0.100000)"
fill="#000000" stroke="none">
<path d="M63 2524 c-33 -16 -63 -66 -63 -104 0 -39 27 -74 158 -202 88 -87
136 -128 153 -129 13 -1 33 -2 43 -3 17 -1 41 -71 175 -516 86 -283 162 -530
170 -548 18 -43 72 -89 121 -102 40 -11 218 0 1270 79 283 21 308 29 348 107
6 11 36 215 67 453 48 363 55 435 43 447 -9 9 -306 39 -1033 104 -561 50
-1030 93 -1042 96 -15 3 -23 12 -23 26 0 24 -236 270 -282 294 -35 18 -65 17
-105 -2z m194 -176 c63 -62 116 -123 120 -135 6 -28 -12 -53 -40 -53 -25 0
-245 215 -253 247 -9 35 2 53 32 53 21 0 53 -25 141 -112z m392 -234 c91 -8
169 -18 172 -22 4 -4 17 -61 29 -127 12 -66 24 -130 27 -142 5 -22 3 -23 -79
-23 -47 0 -125 3 -175 6 l-90 7 -43 146 c-23 80 -45 152 -47 159 -6 16 4 15
206 -4z m498 -45 l142 -12 5 -61 c3 -34 8 -96 10 -138 l6 -78 -173 7 c-94 3
-175 10 -178 15 -4 6 -11 40 -18 76 -6 37 -17 100 -25 141 l-14 74 51 -6 c29
-3 116 -11 194 -18z m436 -40 l137 -12 0 -111 c0 -61 -4 -117 -9 -125 -8 -12
-37 -13 -166 -8 -87 3 -159 7 -160 9 -2 2 -6 63 -10 137 l-7 133 38 -6 c22 -3
101 -11 177 -17z m432 -40 c60 -5 111 -11 112 -13 3 -3 -16 -219 -20 -222 -1
-1 -73 1 -159 3 l-158 6 0 101 c0 146 1 148 64 141 28 -3 100 -10 161 -16z
m344 -30 c64 -6 117 -12 118 -13 1 -1 -3 -47 -10 -102 l-13 -99 -129 3 c-71 1
-131 4 -133 7 -2 2 -1 51 3 109 9 123 -11 112 164 95z m-1543 -235 l80 -7 30
-163 c17 -90 28 -166 26 -169 -3 -3 -69 -5 -147 -5 l-141 0 -47 160 c-26 88
-50 167 -53 175 -5 13 8 15 82 15 49 0 125 -3 170 -6z m391 -14 l101 0 6 -37
c3 -21 8 -93 12 -160 l6 -123 -151 0 c-83 0 -151 4 -151 9 0 10 -47 264 -55
300 -6 24 -6 24 62 18 37 -4 114 -7 170 -7z m427 -16 l77 -7 -3 -141 -3 -141
-147 -5 -147 -5 -5 35 c-3 19 -8 88 -12 153 l-6 117 85 0 c46 0 119 -3 161 -6z
m464 -20 c6 -4 -10 -241 -17 -251 -3 -6 -72 -13 -153 -16 l-148 -6 0 77 c0 42
3 107 7 144 l6 68 151 -7 c83 -3 153 -7 154 -9z m342 -26 c0 -32 -27 -219 -32
-224 -3 -2 -60 -7 -128 -11 l-122 -6 6 84 c4 46 9 105 12 132 l6 47 129 0
c127 0 129 0 129 -22z m-40 -320 c0 -7 -6 -53 -14 -101 -9 -64 -19 -94 -34
-109 -22 -22 -87 -36 -175 -37 l-49 -1 6 38 c3 20 8 75 12 122 3 47 8 88 11
93 2 4 58 7 124 7 89 0 119 -3 119 -12z m-700 -137 c0 -77 -3 -142 -7 -144 -5
-3 -65 -8 -135 -12 l-126 -7 -6 89 c-4 48 -9 114 -12 145 l-5 57 123 4 c68 1
133 4 146 5 22 2 22 1 22 -137z m376 122 c-2 -10 -8 -68 -11 -129 l-7 -112
-92 -6 c-50 -4 -115 -9 -143 -12 l-53 -6 0 64 c0 36 3 99 6 141 l7 77 149 0
c137 0 149 -1 144 -17z m-733 -90 c4 -54 7 -121 7 -150 l0 -51 -77 -7 c-43 -3
-98 -7 -123 -8 l-44 -2 -28 140 c-15 77 -27 145 -28 152 0 12 37 15 221 21
l66 2 6 -97z m-368 65 c3 -13 16 -81 29 -153 18 -97 21 -132 13 -137 -7 -4
-51 -8 -98 -8 -126 0 -139 12 -190 178 -16 53 -32 105 -35 114 -6 20 17 24
168 26 104 2 108 1 113 -20z"/>
<path d="M723 838 c-17 -23 -115 -260 -120 -292 -3 -22 2 -41 19 -66 28 -41
61 -60 106 -60 31 0 32 -1 32 -42 0 -39 -3 -45 -39 -65 -51 -29 -86 -98 -78
-154 10 -76 82 -139 158 -139 98 0 175 102 150 198 -11 37 -60 94 -93 105 -14
5 -18 18 -18 52 l0 45 640 0 640 0 0 -45 c0 -38 -4 -47 -22 -54 -62 -24 -107
-116 -88 -180 14 -52 37 -79 82 -102 95 -49 211 12 225 118 8 60 -24 125 -76
155 -38 21 -41 26 -41 66 l0 42 48 0 c26 0 53 5 60 12 18 18 14 46 -7 58 -13
7 -286 10 -815 10 l-796 0 -6 24 c-4 16 12 65 51 155 35 83 54 139 50 152 -7
22 -47 26 -62 7z m132 -603 c50 -49 17 -135 -53 -135 -48 0 -82 32 -82 77 0
44 37 83 80 83 19 0 40 -9 55 -25z m1359 4 c57 -45 21 -139 -55 -139 -71 0
-105 85 -54 135 30 31 73 32 109 4z"/>
</g>
</svg>
